<svg width="128" height="128" viewBox="0 0 128 128" fill="none" xmlns="http://www.w3.org/2000/svg">
<g filter="url(#filter0_d_346_5926)">
<path d="M40.976 43.2695C37.5007 43.2695 34.683 40.452 34.683 36.9765C34.683 33.501 37.5007 30.6835 40.976 30.6835C44.4518 30.6835 47.269 33.501 47.269 36.9765C47.269 40.452 44.4518 43.2695 40.976 43.2695Z" fill="#881629"/>
<path d="M64 53.0732C67.1755 53.0732 69.7587 50.4898 69.7587 47.3146C69.7587 44.1396 67.1755 41.5561 64 41.5561C60.8248 41.5561 58.2416 44.1396 58.2416 47.3146C58.2416 50.4898 60.8248 53.0732 64 53.0732Z" fill="#F03E42"/>
<path d="M64.0004 66.9284C60.8252 66.9284 58.2419 69.5116 58.2419 72.6869C58.2419 75.8621 60.8252 78.4453 64.0004 78.4453C67.1758 78.4453 69.7591 75.8621 69.7591 72.6869C69.7591 69.5116 67.1758 66.9284 64.0004 66.9284Z" fill="#5E53AE"/>
<path d="M76.6866 54.2426C73.5113 54.2426 70.9281 56.8259 70.9281 60.0013C70.9281 63.1765 73.5113 65.7598 76.6866 65.7598C79.862 65.7598 82.445 63.1765 82.445 60.0013C82.445 56.8259 79.862 54.2426 76.6866 54.2426Z" fill="#3DBB73"/>
<path d="M51.3139 54.2426C48.1387 54.2426 45.5554 56.8259 45.5554 60.0013C45.5554 63.1765 48.1387 65.7598 51.3139 65.7598C54.4891 65.7598 57.0723 63.1765 57.0723 60.0013C57.0723 56.8259 54.4891 54.2426 51.3139 54.2426Z" fill="#55C6C9"/>
<path d="M87.024 43.2695C83.5485 43.2695 80.731 40.452 80.731 36.9765C80.731 33.501 83.5485 30.6835 87.024 30.6835C90.4995 30.6835 93.317 33.501 93.317 36.9765C93.317 40.452 90.4995 43.2695 87.024 43.2695Z" fill="#267D45"/>
<path d="M40.976 89.3174C37.5007 89.3174 34.683 86.4999 34.683 83.0244C34.683 79.5488 37.5007 76.7313 40.976 76.7313C44.4518 76.7313 47.269 79.5488 47.269 83.0244C47.269 86.4999 44.4518 89.3174 40.976 89.3174Z" fill="#2B7579"/>
<path d="M87.024 89.3174C83.5485 89.3174 80.731 86.4999 80.731 83.0244C80.731 79.5488 83.5485 76.7313 87.024 76.7313C90.4995 76.7313 93.317 79.5488 93.317 83.0244C93.317 86.4999 90.4995 89.3174 87.024 89.3174Z" fill="#212751"/>
<path d="M87.0239 27.8724C87.8934 27.8724 88.7338 27.9974 89.5307 28.2261L77.8577 8.00033C76.454 5.57122 74.4365 3.55369 72.0074 2.15001C64.3537 -2.27234 54.5644 0.346897 50.1421 8.00033L49.6545 8.85088C54.8062 7.08265 60.5152 8.39823 64.3732 12.2429C64.9283 12.793 65.4348 13.39 65.8877 14.0268C66.0654 14.2002 66.2158 14.3996 66.3337 14.6182L78.1249 35.0586C79.0081 30.9566 82.6618 27.8724 87.0239 27.8724Z" fill="#F03E42"/>
<path d="M64.3735 12.2426C60.5155 8.39794 54.8065 7.08236 49.6548 8.85059L40.2261 25.1771L38.4672 28.2265C39.2649 27.9973 40.106 27.8721 40.9762 27.8721C45.34 27.8721 48.9946 30.9586 49.8763 35.0625L61.656 14.6179C61.7653 14.4348 61.896 14.2652 62.0448 14.1127C63.0939 13.0391 64.8144 13.019 65.888 14.0681C65.8615 14.0305 65.8328 13.9945 65.8056 13.9572L65.888 14.0266C65.4351 13.3897 64.9286 12.7927 64.3735 12.2426Z" fill="#B72137"/>
<path d="M31.8722 83.0232C31.8722 78.6612 34.9567 75.0072 39.0584 74.1242L18.618 62.3331C18.3992 62.2151 18.1999 62.0648 18.0266 61.887C17.3897 61.4341 16.7928 60.9276 16.2425 60.3725C12.398 56.5143 11.0823 50.8055 12.8507 45.6539L12.0002 46.1414C4.34666 50.5638 1.72742 60.3533 6.1498 68.0067C7.55348 70.4358 9.57103 72.4533 12.0002 73.857L32.226 85.5303C31.9972 84.7332 31.8722 83.8928 31.8722 83.0232Z" fill="#55C6C9"/>
<path d="M16.2427 60.3722C16.7929 60.9273 17.3899 61.4338 18.0268 61.8867L17.978 61.8196C18.0085 61.8415 18.0377 61.8651 18.0683 61.8867C17.0193 60.8131 17.0394 59.0926 18.1129 58.0438C18.2654 57.8945 18.435 57.764 18.6181 57.6547L39.063 45.8748C34.9589 44.9934 31.8724 41.3383 31.8724 36.9747C31.8724 36.1045 31.9976 35.2634 32.2268 34.4659L29.1774 36.2248L12.8509 45.6536C11.0825 50.8052 12.3981 56.514 16.2427 60.3722Z" fill="#2B7579"/>
<path d="M63.6266 107.758C63.0717 107.207 62.5649 106.61 62.1123 105.973C61.9343 105.8 61.7841 105.601 61.6662 105.382L49.8753 84.9419C48.9921 89.0438 45.3384 92.1283 40.9761 92.1283C40.1065 92.1283 39.2664 92.0031 38.4692 91.7743L50.1423 112C51.5459 114.429 53.5635 116.447 55.9926 117.85C63.646 122.273 73.4353 119.653 77.8579 112L78.3454 111.149C73.1937 112.918 67.4848 111.602 63.6266 107.758Z" fill="#5E53AE"/>
<path d="M87.0241 92.1278C82.66 92.1278 79.0048 89.0405 78.1237 84.9359L66.3443 105.34C66.2354 105.527 66.1047 105.7 65.9548 105.856C64.9883 106.861 63.4356 106.96 62.3525 106.135L62.1123 105.931L62.1052 105.965C62.1079 105.967 62.1096 105.97 62.1123 105.973C62.5649 106.61 63.0717 107.207 63.6266 107.757C67.4848 111.602 73.1938 112.917 78.3454 111.149L87.7742 94.8223L89.5329 91.7734C88.7351 92.0024 87.8943 92.1278 87.0241 92.1278Z" fill="#2E3587"/>
<path d="M121.85 51.9929C120.446 49.5637 118.429 47.5462 116 46.1425L95.774 34.4695C96.0028 35.2666 96.128 36.107 96.128 36.9766C96.128 41.3386 93.0435 44.9924 88.9418 45.8756L109.382 57.6665C109.6 57.7842 109.8 57.9348 109.973 58.1126C110.61 58.5654 111.207 59.072 111.757 59.6269C115.602 63.485 116.917 69.194 115.149 74.3457L116 73.8582C123.653 69.4358 126.272 59.6463 121.85 51.9929Z" fill="#3DBB73"/>
<path d="M115.399 73.5336C116.772 68.6019 115.402 63.2824 111.758 59.6252C111.207 59.0703 110.611 58.5637 109.973 58.1109C109.972 58.1089 109.969 58.1075 109.968 58.1055L109.932 58.1109L110.613 59.312C110.856 60.228 110.613 61.2443 109.887 61.954C109.735 62.1028 109.565 62.2336 109.382 62.3429L88.9656 74.1294C93.0558 75.0217 96.1284 78.6694 96.1284 83.0231C96.1284 83.8931 96.003 84.7339 95.774 85.5312L98.8231 83.7727L115.149 74.344C115.232 74.1016 115.306 73.8573 115.375 73.6127L115.399 73.5336Z" fill="#267D45"/>
</g>
<defs>
<filter id="filter0_d_346_5926" x="0" y="0" width="128" height="128" filterUnits="userSpaceOnUse" color-interpolation-filters="sRGB">
<feFlood flood-opacity="0" result="BackgroundImageFix"/>
<feColorMatrix in="SourceAlpha" type="matrix" values="0 0 0 0 0 0 0 0 0 0 0 0 0 0 0 0 0 0 127 0" result="hardAlpha"/>
<feOffset dy="4"/>
<feGaussianBlur stdDeviation="2"/>
<feComposite in2="hardAlpha" operator="out"/>
<feColorMatrix type="matrix" values="0 0 0 0 0 0 0 0 0 0 0 0 0 0 0 0 0 0 0.25 0"/>
<feBlend mode="normal" in2="BackgroundImageFix" result="effect1_dropShadow_346_5926"/>
<feBlend mode="normal" in="SourceGraphic" in2="effect1_dropShadow_346_5926" result="shape"/>
</filter>
</defs>
</svg>
